# xmcd
#
# Track frame offsets: 
#        150
#        9983
#        21919
#        39410
#        54167
#        65615
#        81919
#        95881
#        114717
#        135603
#
# Disc length: 2027 seconds
#
# Revision: 0
# Processed by: cddbd v1.5.2PL0 Copyright (c) Steve Scherf et al.
# Submitted via: ExactAudioCopyFreeDBPlugin 1.0
#
DISCID=8007e90a
DTITLE=Amanda Shires - My Piece Of Land
DYEAR=2016
DGENRE=Folk
TTITLE0=The Way It Dimmed
TTITLE1=Slippin'
TTITLE2=Harmless
TTITLE3=Pale Fire
TTITLE4=Nursery Rhyme
TTITLE5=My Love (The Storm)
TTITLE6=When You're Gone
TTITLE7=Mineral Wells
TTITLE8=I Know What It's Like
TTITLE9=You Are My Home
EXTD=
EXTT0=
EXTT1=
EXTT2=
EXTT3=
EXTT4=
EXTT5=
EXTT6=
EXTT7=
EXTT8=
EXTT9=
PLAYORDER=
